Results
version=1
nRows=14
nColumns=21
inDegrees=yes
endheader
time	Thorax_pitch	Thorax_roll	Thorax_yaw	Thorax_Tx	Thorax_Ty	Thorax_Tz	L_shoulder_flex-ext	L_shoulder_adb-add	L_shoulder_LAR	L_elbow_flex-ext	L_forearm_pron-sup	L_wrist_flex-ext	L_MCP_flex-ext	R_shoulder_flex-ext	R_shoulder_adb-add	R_shoulder_LAR	R_elbow_flex-ext	R_forearm_pron-sup	R_wrist_flex-ext	R_MCP_flex-ext
      0.44500000	      0.00000000	      0.00000000	     22.79714960	      0.52343651	      0.12649668	      0.10786399	      0.00000000	      0.00000000	      0.00000000	    -67.49998635	     49.99999299	      0.00000000	      0.00000000	     12.47144620	     17.50926071	     15.01822549	    -58.67337203	     52.64437213	     29.85349790	    -12.20763350
      0.44510000	      0.00000000	      0.00000000	     22.78673852	      0.52351145	      0.12652604	      0.10785249	      0.00000000	      0.00000000	      0.00000000	    -67.49998635	     49.99999299	      0.00000000	      0.00000000	     12.42895437	     17.55499141	     14.88620986	    -58.65882392	     52.80103065	     29.76063875	    -12.16868033
      0.44520000	      0.00000000	      0.00000000	     22.76711868	      0.52361511	      0.12654564	      0.10787116	      0.00000000	      0.00000000	      0.00000000	    -67.49998635	     49.99999299	      0.00000000	      0.00000000	     12.39632177	     17.57676619	     14.75668298	    -58.66270322	     52.95672723	     29.67025121	    -12.13128622
      0.44530000	      0.00000000	      0.00000000	     22.75614595	      0.52370658	      0.12656445	      0.10789053	      0.00000000	      0.00000000	      0.00000000	    -67.49998635	     49.99999299	      0.00000000	      0.00000000	     12.36338824	     17.59817659	     14.63318425	    -58.66667224	     53.10610261	     29.58584865	    -12.09743928
      0.44540000	      0.00000000	      0.00000000	     22.74755426	      0.52380181	      0.12658056	      0.10791050	      0.00000000	      0.00000000	      0.00000000	    -67.49998635	     49.99999299	      0.00000000	      0.00000000	     12.33301268	     17.61748555	     14.51563113	    -58.67211042	     53.25106961	     29.50584705	    -12.06617098
      0.44550000	      0.00000000	      0.00000000	     22.73779243	      0.52389977	      0.12659408	      0.10794567	      0.00000000	      0.00000000	      0.00000000	    -67.49998635	     49.99999299	      0.00000000	      0.00000000	     12.30232528	     17.63155904	     14.39682646	    -58.68151863	     53.39989476	     29.42322966	    -12.03389771
      0.44560000	      0.00000000	      0.00000000	     22.97222644	      0.52388060	      0.12665073	      0.10800291	      0.00000000	      0.00000000	      0.00000000	    -67.49998635	     49.99999299	      0.00000000	      0.00000000	     12.36722443	     17.44502502	     14.57291438	    -58.31241702	     52.84108310	     29.69807691	    -12.21521060
      0.44570000	      0.00000000	      0.00000000	     22.96409029	      0.52395056	      0.12667150	      0.10799030	      0.00000000	      0.00000000	      0.00000000	    -67.49998635	     49.99999299	      0.00000000	      0.00000000	     12.31929469	     17.48223089	     14.46753130	    -58.30151606	     52.96246793	     29.61400858	    -12.17725426
      0.44580000	      0.00000000	      0.00000000	     22.91848316	      0.52409235	      0.12668292	      0.10802606	      0.00000000	      0.00000000	      0.00000000	    -67.49998635	     49.99999299	      0.00000000	      0.00000000	     12.28580949	     17.49227080	     14.32635099	    -58.32200870	     53.13853471	     29.50334158	    -12.12757970
      0.44590000	      0.00000000	      0.00000000	     22.90572999	      0.52418928	      0.12670606	      0.10804399	      0.00000000	      0.00000000	      0.00000000	    -67.49998635	     49.99999299	      0.00000000	      0.00000000	     12.24651401	     17.51816845	     14.20428563	    -58.32969862	     53.28977933	     29.41293452	    -12.08928564
      0.44600000	      0.00000000	      0.00000000	     22.89008678	      0.52427200	      0.12671997	      0.10805580	      0.00000000	      0.00000000	      0.00000000	    -67.49998635	     49.99999299	      0.00000000	      0.00000000	     12.20881242	     17.54244733	     14.08130643	    -58.33864578	     53.44496153	     29.32082271	    -12.05027062
      0.44610000	      0.00000000	      0.00000000	     22.90202237	      0.52436924	      0.12673769	      0.10807127	      0.00000000	      0.00000000	      0.00000000	    -67.49998635	     49.99999299	      0.00000000	      0.00000000	     12.18154292	     17.56748988	     13.99279955	    -58.34501400	     53.56117569	     29.26264412	    -12.03034776
      0.44620000	      0.00000000	      0.00000000	     22.94842723	      0.52445242	      0.12675169	      0.10809316	      0.00000000	      0.00000000	      0.00000000	    -67.49998635	     49.99999299	      0.00000000	      0.00000000	     12.17233149	     17.58355957	     13.95049934	    -58.34689819	     53.60942571	     29.25668279	    -12.03822719
      0.44630000	      0.00000000	      0.00000000	     23.06410524	      0.52446533	      0.12675071	      0.10814434	      0.00000000	      0.00000000	      0.00000000	    -67.49998635	     49.99999299	      0.00000000	      0.00000000	     12.16927278	     17.52724809	     13.98422901	    -58.27842041	     53.46715791	     29.32991564	    -12.08922768
